<svg width="172" height="182" xmlns="http://www.w3.org/2000/svg" xmlns:xlink="http://www.w3.org/1999/xlink" xml:space="preserve" overflow="hidden"><g><path d="M81.6009 175.506C81.6009 172.131 81.8146 168.158 82.0709 166.662 83.5235 157.477 88.0094 150.385 95.4005 145.472L97.793 143.891 100.527 145.814C102.023 146.882 104.586 149.189 106.209 150.94 112.575 157.733 115.01 165.423 114.284 176.574L113.985 181.573 97.793 181.573 81.6009 181.573 81.6009 175.506ZM103.518 177.429C102.193 175.677 99.8437 171.191 98.9892 168.713 98.8183 168.158 97.6221 167.987 91.5981 167.773 87.6676 167.602 84.3352 167.602 84.207 167.731 84.0789 167.859 83.8653 170.55 83.8225 173.712L83.6516 179.437 94.3751 179.437 105.099 179.437 103.518 177.429ZM112.105 175.677C112.276 173.584 112.276 170.935 112.105 169.738L111.849 167.56 108.559 167.731C104.757 167.987 102.535 168.286 102.535 168.585 102.535 169.098 105.355 174.353 106.936 176.788 108.559 179.223 108.815 179.437 110.268 179.437L111.806 179.437 112.105 175.677ZM97.1094 162.903C96.7676 161.749 95.9559 158.374 95.2723 155.384 94.5887 152.35 93.9052 149.744 93.777 149.616 93.6061 149.445 92.4099 150.47 91.1282 151.88 88.5648 154.7 85.5315 160.382 85.3606 162.775L85.2324 164.27 88.0094 164.526C89.5474 164.654 92.3671 164.783 94.2897 164.825L97.7502 164.911 97.1094 162.903ZM111.037 164.227C111.165 164.142 110.866 162.946 110.439 161.621 108.901 157.092 104.885 151.88 100.185 148.249 97.7075 146.326 96.9812 146.326 96.9812 148.163 96.9812 149.915 98.5192 157.007 99.8437 161.237L100.997 165.039 105.91 164.74C108.645 164.569 110.952 164.355 111.037 164.227Z" transform="matrix(1.00148 0 0 -1 0 182)"/><path d="M29.0089 164.185C25.6338 160.297 22.6859 156.836 22.515 156.494 22.2587 156.11 22.8141 155.127 24.2667 153.461 31.7005 144.746 36.0582 134.065 37.5962 120.564 38.1089 116.292 38.0662 114.028 37.3399 90.9146 36.4427 63.1446 42.8512 41.484 55.6681 28.9235 61.4357 23.2413 68.9549 18.7554 80.5329 14.0986 88.6075 10.8516 92.4526 8.75822 94.4178 6.4939 95.3577 5.46854 96.1268 4.40047 96.1268 4.22958 96.1268 4.01596 96.5113 3.84507 96.9812 3.84507 97.4512 3.84507 97.8357 4.01596 97.8357 4.22958 97.8357 4.40047 98.6047 5.46854 99.5446 6.4939 101.51 8.75822 105.355 10.8516 113.43 14.0986 121.162 17.2174 128.468 21.0197 132.569 24.0531 145.814 33.7939 153.333 48.8324 155.982 70.9202 156.623 76.0897 156.708 92.5807 156.195 106.167 155.683 119.112 156.494 126.033 159.57 135.304 161.92 142.353 164.868 147.608 169.653 153.376 170.935 154.956 171.661 156.153 171.49 156.494 171.277 156.751 168.371 160.211 164.996 164.142L158.801 171.319 157.135 169.781C153.162 166.192 147.138 163.074 141.926 161.877 140.815 161.621 138.081 161.45 135.859 161.45 129.622 161.493 124.495 163.159 118.685 167.09 116.591 168.5 116.207 168.628 116.036 167.987 114.156 161.493 113.344 159.143 112.062 156.836L110.61 154.102 114.369 154.401C120.265 154.871 130.049 156.323 135.432 157.477 144.147 159.442 153.803 162.903 157.306 165.381L158.631 166.363 159.741 165.039C160.339 164.313 162.305 162.006 164.099 159.912L167.389 156.11 166.321 154.871C159.271 146.284 154.871 135.475 153.119 122.188 152.564 117.745 152.478 115.181 152.777 106.808 153.333 90.5728 153.162 75.7479 152.35 69.6812 149.958 51.823 144.489 39.5615 134.962 30.5469 129.451 25.3347 123.598 21.9169 112.148 17.2601 104.33 14.0986 100.741 12.3042 98.6901 10.4244L96.9812 8.88638 95.2723 10.4244C93.2216 12.2615 89.6329 14.0986 82.2418 17.0892 65.3662 23.9249 57.3343 29.9488 50.6695 40.8432 43.5775 52.5066 39.9887 70.8347 40.8432 91.6408 41.0568 96.5967 41.185 105.312 41.185 111.08 41.185 120.009 41.0568 122.273 40.2451 126.546 38.1944 137.483 33.7939 147.394 27.6418 154.871L26.5737 156.11 29.8634 159.912C31.6577 161.963 33.5803 164.27 34.1784 164.954L35.2465 166.192 38.0662 164.74C44.3038 161.408 53.5319 158.46 63.6573 156.623 70.1085 155.426 79.892 154.23 83.0108 154.23L85.0188 154.23 83.7798 156.708C82.3272 159.613 81.3873 162.775 80.7465 166.833 80.0202 171.661 80.1484 171.49 77.7986 169.824 74.808 167.645 69.4249 165.082 65.8789 164.099 55.7962 161.322 44.5601 163.501 37.1263 169.653L35.1183 171.277 29.0089 164.185Z" transform="matrix(1.00148 0 0 -1 0 182)"/><path d="M70.0657 137.44C70.0657 137.055 70.2793 136.628 70.493 136.5 70.7493 136.329 70.9202 134.15 70.9202 131.331 70.9202 128.383 70.7493 126.46 70.493 126.46 70.2793 126.46 70.0657 126.076 70.0657 125.606 70.0657 124.879 70.3648 124.751 71.9028 124.751 74.8934 124.794 77.0296 125.477 78.2258 126.802 80.362 129.194 80.3192 134.022 78.1831 136.415 77.0723 137.696 76.7732 137.782 73.5263 137.91 70.6211 138.081 70.0657 137.995 70.0657 137.44ZM75.4488 135.816C77.1577 133.937 76.4742 126.46 74.5944 126.46 73.9962 126.46 73.9108 127.229 73.9108 131.587 73.9108 134.407 74.0817 136.714 74.2526 136.714 74.4662 136.714 74.9789 136.329 75.4488 135.816Z" transform="matrix(1.00148 0 0 -1 0 182)"/><path d="M81.8146 131.373 81.8146 124.708 85.446 124.837 89.0775 124.965 89.0775 126.631C89.0775 128.468 88.1803 129.28 87.9239 127.656 87.8385 126.93 87.454 126.631 86.6423 126.546L85.446 126.417 85.446 129.194 85.446 132.014 86.685 132.014C87.3685 132.014 88.0094 131.8 88.0948 131.501 88.3939 130.604 89.2911 131.63 89.2911 132.869 89.2911 134.108 88.3939 135.133 88.0948 134.236 88.0094 133.937 87.3685 133.723 86.685 133.723 85.5742 133.723 85.446 133.851 85.446 135.218 85.446 136.415 85.6169 136.714 86.2577 136.714 86.7277 136.714 87.4113 136.415 87.7531 136.03 88.6075 135.218 89.2911 135.603 89.2911 136.97 89.2911 137.995 89.2484 137.995 85.5742 137.995L81.8146 137.995 81.8146 131.373Z" transform="matrix(1.00148 0 0 -1 0 182)"/><path d="M91.6408 131.416 91.6408 124.794 95.0587 124.666C96.9385 124.58 98.5192 124.538 98.5192 124.538 98.562 124.538 98.7329 125.435 98.861 126.588 99.1174 128.254 99.0746 128.596 98.5192 128.596 98.1347 128.596 97.8357 128.297 97.8357 127.955 97.8357 127.315 96.5967 126.46 95.6995 126.46 95.315 126.46 95.2296 128.041 95.3577 132.228L95.4859 137.995 93.5634 137.995 91.6408 137.995 91.6408 131.416Z" transform="matrix(1.00148 0 0 -1 0 182)"/><path d="M100.399 137.354C100.399 137.013 100.613 136.714 100.826 136.714 101.083 136.714 101.254 134.706 101.254 131.587 101.254 128.468 101.083 126.46 100.826 126.46 100.613 126.46 100.399 126.076 100.399 125.606 100.399 124.837 100.698 124.751 102.749 124.751 104.8 124.751 105.099 124.837 105.099 125.606 105.099 126.076 104.928 126.46 104.671 126.46 104.415 126.46 104.244 127.656 104.244 129.237L104.244 132.014 105.526 132.014C106.252 132.014 106.808 131.843 106.808 131.587 106.808 131.373 107.107 131.16 107.448 131.16 107.918 131.16 108.089 131.63 108.089 132.869 108.089 134.108 107.918 134.577 107.448 134.577 107.107 134.577 106.808 134.407 106.808 134.15 106.808 133.937 106.252 133.723 105.526 133.723 104.33 133.723 104.244 133.851 104.244 135.218 104.244 136.415 104.415 136.714 105.056 136.714 105.526 136.714 106.167 136.415 106.551 136.073 107.534 135.09 108.089 135.304 108.089 136.714L108.089 137.995 104.244 137.995C101.125 137.995 100.399 137.867 100.399 137.354Z" transform="matrix(1.00148 0 0 -1 0 182)"/><path d="M109.798 137.354C109.798 137.013 110.012 136.714 110.225 136.714 110.823 136.714 110.781 126.759 110.183 126.161 109.371 125.349 110.183 124.751 112.148 124.751 114.113 124.751 114.925 125.349 114.113 126.161 113.515 126.759 113.472 136.714 114.07 136.714 114.327 136.714 114.498 137.013 114.498 137.354 114.498 137.867 113.942 137.995 112.148 137.995 110.354 137.995 109.798 137.867 109.798 137.354Z" transform="matrix(1.00148 0 0 -1 0 182)"/><path d="M116.207 137.611C116.207 137.354 116.42 137.055 116.634 136.927 117.232 136.543 117.189 126.759 116.591 126.161 115.865 125.435 116.506 124.751 117.873 124.751L119.069 124.751 118.898 129.365 118.77 133.937 120.607 130.262C121.632 128.212 122.615 126.161 122.743 125.648 122.871 125.093 123.299 124.751 123.854 124.751 124.708 124.751 124.751 124.965 124.751 130.732 124.751 134.449 124.922 136.714 125.178 136.714 125.435 136.714 125.606 137.013 125.606 137.354 125.606 137.782 125.136 137.995 124.11 137.995 123.085 137.995 122.615 137.782 122.615 137.397 122.615 137.055 122.829 136.714 123.085 136.628 123.341 136.543 123.469 135.475 123.384 133.937L123.256 131.373 121.547 134.706 119.881 137.995 118.044 137.995C117.018 137.995 116.207 137.824 116.207 137.611Z" transform="matrix(1.00148 0 0 -1 0 182)"/><path d="M44.8592 134.919C44.8164 134.834 44.7737 132.527 44.731 129.75L44.6455 124.751 46.269 124.751C47.8925 124.751 48.3197 125.392 47.3798 126.332 46.6962 127.015 47.2944 127.742 48.4906 127.742 50.584 127.742 52.0793 131.587 50.7122 133.467 50.4131 133.851 49.4305 134.364 48.4906 134.577 46.8671 134.962 44.8592 135.133 44.8592 134.919ZM48.7042 132.27C49.046 131.245 49.046 130.519 48.7042 129.622 48.2343 128.425 48.1915 128.425 47.5934 129.194 46.9953 130.049 46.7817 132.911 47.2944 133.424 47.8498 134.022 48.2343 133.68 48.7042 132.27Z" transform="matrix(1.00148 0 0 -1 0 182)"/><path d="M55.9671 134.919C55.9244 134.834 55.8817 132.527 55.839 129.75L55.7535 124.751 57.1207 124.751C58.4878 124.751 59.5559 125.606 58.616 125.947 58.0178 126.118 57.9324 128.853 58.4878 129.194 58.7014 129.323 59.2141 128.425 59.6413 127.186 60.453 124.965 61.2221 124.409 62.6746 124.922 63.1446 125.093 63.1873 125.349 62.8883 125.734 62.6746 125.99 61.9484 127.485 61.3502 128.981 60.3249 131.544 60.2822 131.715 61.0084 132.698 61.393 133.253 61.8629 133.723 62.0765 133.723 62.2474 133.723 62.3756 134.022 62.3756 134.407 62.3756 134.877 62.0338 135.005 61.2221 134.919 60.3676 134.834 60.0258 134.535 60.0258 133.937 60.0258 132.997 58.9577 131.16 58.4451 131.16 57.8897 131.16 58.0606 133.638 58.616 133.808 59.5131 134.108 58.4878 135.005 57.2061 135.005 56.5225 135.005 55.9671 134.962 55.9671 134.919Z" transform="matrix(1.00148 0 0 -1 0 182)"/><path d="M131.886 134.15C128.853 131.758 129.75 124.751 133.082 124.751 134.236 124.751 136.286 126.289 136.286 127.144 136.286 127.827 135.603 127.955 135.218 127.315 134.663 126.46 133.296 126.887 132.655 128.212 131.715 129.963 131.929 133.467 132.997 133.638 133.552 133.766 133.723 133.509 133.723 132.399L133.723 130.989 135.005 132.228 136.329 133.467 135.346 134.236C134.065 135.218 133.21 135.176 131.886 134.15Z" transform="matrix(1.00148 0 0 -1 0 182)"/><path d="M140.986 134.919C140.943 134.834 140.9 132.527 140.858 129.75 140.772 124.922 140.815 124.751 141.669 124.751 142.524 124.751 142.567 124.922 142.396 128.297L142.268 131.8 143.763 128.81C144.575 127.186 145.258 125.606 145.258 125.307 145.258 124.708 146.369 124.538 146.711 125.093 146.796 125.264 146.967 127.528 147.01 130.092 147.138 134.577 147.095 134.791 146.241 134.919 145.386 135.047 145.344 134.919 145.557 132.356L145.728 129.664 144.318 132.228C143.336 134.022 142.609 134.834 141.969 134.919 141.413 135.005 140.986 135.005 140.986 134.919Z" transform="matrix(1.00148 0 0 -1 0 182)"/><path d="M52.5493 126.076C52.5493 125.008 53.361 124.452 53.8737 125.221 54.3864 126.033 54.13 126.631 53.2756 126.802 52.8056 126.887 52.5493 126.674 52.5493 126.076Z" transform="matrix(1.00148 0 0 -1 0 182)"/><path d="M63.7427 125.947C63.8282 125.435 64.17 124.965 64.5117 124.965 65.4516 124.965 65.3235 126.631 64.3836 126.802 63.7427 126.93 63.6146 126.759 63.7427 125.947Z" transform="matrix(1.00148 0 0 -1 0 182)"/><path d="M137.568 126.076C137.568 125.008 138.38 124.452 138.892 125.221 139.405 126.033 139.149 126.631 138.294 126.802 137.824 126.887 137.568 126.674 137.568 126.076Z" transform="matrix(1.00148 0 0 -1 0 182)"/><path d="M148.804 126.204C148.505 125.435 149.274 124.538 149.915 124.922 150.641 125.392 150.47 126.887 149.744 126.887 149.36 126.887 148.975 126.588 148.804 126.204Z" transform="matrix(1.00148 0 0 -1 0 182)"/><path d="M54.8991 116.42 54.8991 113.216 56.0953 113.216C57.1207 113.216 57.2488 113.344 56.9925 114.284 56.8216 114.968 56.907 115.352 57.2061 115.352 57.4624 115.352 57.9324 114.882 58.1887 114.284 58.6587 113.216 60.6667 112.703 60.6667 113.643 60.6667 113.9 60.4958 114.07 60.2822 114.07 59.6413 114.07 59.2568 115.822 59.7695 116.335 60.5385 117.104 60.3249 118.685 59.4277 119.197 58.9577 119.411 57.7615 119.624 56.7361 119.624L54.8991 119.624 54.8991 116.42ZM58.3169 117.488C58.3169 116.805 58.0606 116.377 57.5906 116.292 56.9925 116.164 56.8216 116.42 56.8216 117.488 56.8216 118.556 56.9925 118.813 57.5906 118.685 58.0606 118.599 58.3169 118.172 58.3169 117.488Z" transform="matrix(1.00148 0 0 -1 0 182)"/><path d="M62.3756 118.855C61.692 118.3 61.4357 117.616 61.4357 116.42 61.4357 114.455 62.6319 113.216 64.5117 113.216 65.9216 113.216 67.5023 114.925 67.5023 116.42 67.5023 119.026 64.3836 120.479 62.3756 118.855ZM65.3662 117.146C65.9216 115.096 65.9216 114.711 65.1953 114.113 64.4263 113.472 63.7 114.369 63.3582 116.377 62.8883 119.454 64.5545 120.094 65.3662 117.146Z" transform="matrix(1.00148 0 0 -1 0 182)"/><path d="M68.1432 118.898C68.3141 118.471 68.784 117.061 69.2113 115.779 70.2793 112.404 71.3047 112.362 72.2873 115.694 72.6718 117.061 73.1418 118.514 73.3127 118.898 73.6972 119.966 71.5183 119.881 70.9629 118.813 70.5784 118.129 70.6211 118.044 71.3901 118.215 72.1592 118.428 72.2019 118.3 71.9455 117.232 71.7746 116.548 71.5183 115.822 71.3474 115.651 70.9629 115.224 69.9376 118.642 70.2793 119.197 70.4502 119.454 69.9803 119.624 69.2113 119.624 68.0577 119.624 67.8869 119.496 68.1432 118.898Z" transform="matrix(1.00148 0 0 -1 0 182)"/><path d="M74.5516 116.42C74.5516 113.301 74.5944 113.216 75.6197 113.216 76.6451 113.216 76.6878 113.301 76.6878 116.42 76.6878 119.539 76.6451 119.624 75.6197 119.624 74.5944 119.624 74.5516 119.539 74.5516 116.42Z" transform="matrix(1.00148 0 0 -1 0 182)"/><path d="M78.3967 116.42C78.3967 113.771 78.5249 113.216 79.0803 113.216 79.6357 113.216 79.7211 113.6 79.5502 115.352 79.4648 116.548 79.4648 117.488 79.593 117.488 79.7211 117.488 80.362 116.548 81.0455 115.352 82.669 112.447 83.3099 112.575 83.3099 115.737 83.3099 117.146 83.438 118.556 83.5662 118.941 83.7371 119.411 83.5662 119.624 82.9681 119.624 82.1991 119.624 82.1136 119.454 82.3272 118.044 82.6263 116.249 81.9854 116.377 80.9601 118.385 80.5329 119.197 79.9775 119.624 79.3366 119.624 78.4394 119.624 78.3967 119.454 78.3967 116.42Z" transform="matrix(1.00148 0 0 -1 0 182)"/><path d="M85.3606 117.018C85.4887 115.138 85.4033 114.284 84.9761 114.028 84.1216 113.515 84.8479 113.088 86.0869 113.387 87.0695 113.643 87.1549 113.857 87.1549 115.95 87.1549 117.232 87.2831 118.556 87.4113 118.941 87.6249 119.454 87.3685 119.624 86.4286 119.624L85.1897 119.624 85.3606 117.018Z" transform="matrix(1.00148 0 0 -1 0 182)"/><path d="M97.6221 116.42 97.6221 113.216 98.8183 113.216C99.8437 113.216 99.9718 113.344 99.7155 114.284 99.5446 114.925 99.63 115.352 99.9291 115.352 100.185 115.352 100.485 114.882 100.655 114.284 100.826 113.515 101.211 113.216 101.937 113.216 103.133 113.216 103.176 113.344 102.279 114.711 101.638 115.651 101.638 115.822 102.279 116.42 102.663 116.805 102.962 117.403 102.962 117.702 102.962 118.685 101.168 119.624 99.331 119.624L97.6221 119.624 97.6221 116.42ZM100.741 117.616C100.57 115.95 99.5446 115.822 99.5446 117.446 99.5446 118.343 99.7582 118.77 100.228 118.77 100.698 118.77 100.826 118.428 100.741 117.616Z" transform="matrix(1.00148 0 0 -1 0 182)"/><path d="M104.757 118.642C102.834 116.591 104.073 113.216 106.808 113.216 108.559 113.216 109.798 114.54 109.798 116.42 109.798 119.325 106.679 120.692 104.757 118.642ZM107.534 117.873C108.089 116.805 108.26 114.412 107.833 113.942 107.235 113.387 106.38 114.284 105.953 115.865 105.141 118.77 106.338 120.265 107.534 117.873Z" transform="matrix(1.00148 0 0 -1 0 182)"/><path d="M111.464 116.42C112.917 112.276 113.6 112.233 114.839 116.121 115.352 117.745 115.779 119.154 115.779 119.325 115.779 120.009 114.07 119.582 113.515 118.77 112.874 117.873 112.276 118.044 112.661 119.026 112.831 119.454 112.532 119.624 111.635 119.624L110.354 119.624 111.464 116.42ZM114.455 117.616C114.455 117.189 114.284 116.463 114.07 115.993 113.729 115.181 113.729 115.181 113.301 116.207 113.045 116.933 113.045 117.446 113.301 117.83 113.942 118.556 114.498 118.471 114.455 117.616Z" transform="matrix(1.00148 0 0 -1 0 182)"/><path d="M116.847 116.42 116.847 113.216 118.044 113.216 119.197 113.216 119.197 116.42 119.197 119.624 118.044 119.624 116.847 119.624 116.847 116.42Z" transform="matrix(1.00148 0 0 -1 0 182)"/><path d="M121.547 118.556C120.223 117.275 120.137 115.267 121.333 114.07 121.974 113.43 122.658 113.216 124.11 113.301L126.033 113.43 126.033 115.267C126.033 116.976 125.99 117.061 124.751 117.061 124.068 117.061 123.469 116.89 123.469 116.634 123.469 116.42 123.683 116.207 123.897 116.207 124.153 116.207 124.324 115.822 124.324 115.352 124.324 114.882 124.025 114.498 123.683 114.498 122.359 114.498 121.632 117.787 122.786 118.727 123.256 119.154 123.469 119.112 123.811 118.514 124.153 117.915 124.367 117.915 125.221 118.343 126.204 118.898 126.204 118.898 125.392 119.24 123.811 119.838 122.572 119.624 121.547 118.556Z" transform="matrix(1.00148 0 0 -1 0 182)"/><path d="M127.528 116.42C127.528 113.771 127.656 113.216 128.212 113.216 128.767 113.216 128.853 113.6 128.682 115.352 128.596 116.548 128.596 117.488 128.724 117.488 128.853 117.488 129.493 116.548 130.177 115.352 131.8 112.447 132.441 112.575 132.441 115.737 132.441 117.146 132.569 118.556 132.698 118.941 132.869 119.411 132.698 119.624 132.1 119.624 131.331 119.624 131.245 119.454 131.459 118.044 131.758 116.249 131.117 116.377 130.092 118.385 129.664 119.197 129.109 119.624 128.468 119.624 127.571 119.624 127.528 119.454 127.528 116.42Z" transform="matrix(1.00148 0 0 -1 0 182)"/><path d="M134.62 118.514C134.108 117.873 133.723 116.933 133.723 116.42 133.723 113.771 137.055 112.276 138.85 114.07 139.961 115.181 140.003 117.915 138.935 118.898 137.696 120.009 135.646 119.838 134.62 118.514ZM137.867 116.078C138.252 112.917 136.543 113.002 135.816 116.207 135.517 117.488 135.56 118.172 135.902 118.642 136.714 119.582 137.611 118.385 137.867 116.078Z" transform="matrix(1.00148 0 0 -1 0 182)"/><path d="M91 115.523C91 115.053 91.3418 114.925 92.3671 115.01 94.3324 115.181 94.4606 116.207 92.538 116.207 91.4272 116.207 91 116.036 91 115.523Z" transform="matrix(1.00148 0 0 -1 0 182)"/><path d="M64.8108 98.6474C61.3075 97.8357 59.1714 96.1268 57.4197 92.6235 56.3089 90.4446 55.369 89.7183 53.7028 89.7183 50.7977 89.7183 49.7296 86.4286 51.9085 84.207 53.6601 82.3272 56.608 81.2592 62.461 80.3192 65.3662 79.8493 68.8695 79.123 70.2366 78.7385 72.5009 78.0976 72.8854 77.7986 73.8681 76.0469 74.4662 74.9789 76.0469 73.0136 77.4141 71.6892 79.4221 69.6385 80.2338 69.1258 82.7545 68.3995 84.3352 67.9296 86.5995 67.4169 87.7958 67.2887 88.9493 67.1178 90.4446 66.7333 91.0854 66.3915 93.5634 65.1099 94.3324 65.9216 92.4099 67.8014 91.4699 68.6986 91.3845 68.8695 92.0681 68.6131 92.538 68.4423 94.3751 67.716 96.1695 67.0751 104.629 63.9136 109.243 61.0512 114.711 55.5399L118.129 52.1221 116.634 52.1221C114.07 52.1221 110.695 49.3023 111.336 47.7216 111.55 47.1662 111.806 47.2089 113.045 47.9352 114.284 48.6615 114.711 48.7469 115.651 48.3197 117.232 47.5934 120.052 45.1582 120.052 44.4746 120.052 43.193 121.889 41.0141 123.598 40.2451 124.58 39.7751 126.246 39.2624 127.315 39.0915 128.383 38.9207 130.049 38.3225 131.031 37.7244 133.766 36.1437 134.449 36.9127 132.698 39.4761 132.142 40.3305 131.459 41.954 131.16 43.0648 130.561 45.7136 128.724 47.9352 126.204 49.1742 123.897 50.285 123.811 50.4131 120.863 59.5986 119.71 63.1446 118.086 67.246 117.189 68.7413 116.292 70.2366 113.472 73.7826 110.866 76.5596 108.303 79.3793 105.739 82.3699 105.184 83.2671L104.244 84.8906 105.099 86.0014C106.209 87.3685 109.243 88.8638 110.994 88.8638 112.062 88.8638 112.362 89.0347 112.362 89.6756 112.362 90.2737 111.55 90.8291 109.2 91.8117 104.586 93.7343 101.211 94.4178 96.0413 94.4178 91.6836 94.4178 91.2136 94.5033 87.2404 96.084 80.661 98.7329 78.6103 99.1174 72.1592 99.0746 68.9977 99.0319 65.708 98.861 64.8108 98.6474ZM74.8507 96.554C76.5596 95.5286 76.6451 95.5286 77.5423 96.3831 78.3113 97.1948 78.1404 97.2376 85.7023 93.9479L90.4873 91.8545 95.9559 91.8545C103.347 91.8545 109.926 90.7009 106.508 90.0174 104.885 89.6756 102.492 88.0094 101.723 86.6423 101.211 85.7451 101.168 85.1469 101.638 83.0535 102.151 80.5756 102.279 80.4047 108.046 74.7653 111.721 71.1765 114.711 67.8441 115.908 66.007 117.659 63.23 120.265 56.5225 121.12 52.592 121.419 51.1822 121.333 51.2249 118.727 54.0446 114.156 58.9577 110.311 62.461 106.679 65.1099 102.279 68.2286 101.339 68.6986 95.0587 70.9202 88.6075 73.1845 85.916 74.5089 84.677 76.0897 84.1216 76.7305 83.0962 77.7131 82.3272 78.2685 81.1737 79.0803 81.0455 79.0803 81.6437 78.354 82.669 77.1577 84.1643 74.0817 84.1643 73.1845 84.1643 72.7573 84.5488 71.6892 85.0188 70.792L85.8732 69.2113 83.3953 70.4502C80.6183 71.8601 77.8413 74.6371 76.4742 77.4141 75.9615 78.3967 75.0643 79.892 74.4662 80.661 73.4408 82.0282 72.4582 82.5408 72.8854 81.43 73.3127 80.2765 72.2446 80.3192 69.5103 81.6009 67.3315 82.6263 65.8362 82.9681 62.2047 83.3099 57.5052 83.7371 54.7282 84.2925 53.361 85.1469 51.9512 86.0014 52.4638 86.3005 54.1728 85.5742 55.4117 85.0188 57.1207 84.8906 62.1192 84.9333 65.5798 84.9761 68.6131 84.8906 68.8695 84.7624 69.0831 84.6343 69.0404 84.2925 68.7413 83.908 68.1005 83.139 68.8268 83.139 69.8948 83.908 70.6638 84.5061 70.6638 84.5915 69.9803 85.3178 69.4676 85.7878 69.2113 85.8732 69.2113 85.5315 69.2113 85.1469 68.8268 85.1897 67.8441 85.7451 66.7761 86.2577 65.6653 86.4286 63.4437 86.3005 58.146 86.0441 55.2836 86.1723 54.3437 86.685 53.3183 87.2404 53.4465 88.1376 54.4718 87.7103 55.6254 87.2831 57.6761 88.5221 58.9577 90.3164 61.9911 94.6742 64.5545 96.3831 68.9549 96.9385 73.0136 97.4939 73.3554 97.4512 74.8507 96.554ZM124.965 47.2089C127.357 45.3718 129.023 43.2357 129.023 41.9967 129.023 41.2704 128.981 41.2704 126.246 42.4667 123.683 43.6202 122.487 45.2009 123.427 46.269 123.811 46.7817 123.598 46.9099 122.316 47.1235 121.419 47.2944 120.009 47.9779 119.197 48.6615L117.702 49.9432 119.026 49.7296C119.923 49.5587 120.479 49.6869 120.906 50.1995 121.419 50.8404 121.504 50.8404 121.931 50.0286 122.188 49.5587 123.555 48.277 124.965 47.2089Z" transform="matrix(1.00148 0 0 -1 0 182)"/><path d="M71.5183 86.9413C71.1338 85.9587 71.6465 85.0188 72.6291 85.0188 73.6972 85.0188 74.2099 86.0869 73.4836 86.9413 72.8 87.7531 71.8174 87.7531 71.5183 86.9413Z" transform="matrix(1.00148 0 0 -1 0 182)"/><path d="M86.984 31.0596C86.3859 30.6324 86.215 29.8207 86.1723 27.2146L86.0869 23.9249 87.5394 23.9249C88.6502 23.9249 88.9066 24.0531 88.693 24.6084 88.5648 24.993 88.4366 26.7019 88.4366 28.4535 88.4366 31.7005 88.2657 31.9995 86.984 31.0596Z" transform="matrix(1.00148 0 0 -1 0 182)"/><path d="M91.8972 30.5042C90.8291 29.1371 90.7864 28.6671 91.6836 27.3854 92.239 26.6164 92.6662 26.4455 93.6061 26.6592 94.6742 26.8728 94.8451 26.7446 94.8451 26.0183 94.8451 25.2493 94.6742 25.1211 93.6061 25.3347 92.8371 25.5056 92.1962 25.3775 91.8972 25.0357 90.6155 23.4977 94.0761 23.4977 95.4859 25.0357 96.554 26.1892 96.7676 27.0009 96.5967 29.0516 96.3404 31.6577 93.4779 32.5122 91.8972 30.5042ZM94.546 29.308C94.8023 28.539 94.8023 27.9836 94.5033 27.6845 93.9052 27.0864 92.538 29.2225 92.8798 30.1624 93.2643 31.1023 94.0761 30.7178 94.546 29.308Z" transform="matrix(1.00148 0 0 -1 0 182)"/><path d="M99.4592 29.1371C98.562 27.77 97.8357 26.4028 97.8357 26.1465 97.8357 25.8474 98.4338 25.6338 99.1601 25.6338 100.271 25.6338 100.399 25.5056 100.185 24.7793 99.9718 24.0531 100.1 23.9249 101.211 23.9249 102.578 23.9249 103.347 24.5657 102.45 24.9075 102.023 25.0784 102.065 25.2493 102.535 25.5911 103.048 25.9329 103.048 26.1465 102.621 26.5737 102.364 26.83 102.108 28.1117 102.108 29.3507 102.108 32.3413 101.467 32.2559 99.4592 29.1371ZM100.399 27.77C100.399 26.9155 100.185 26.4883 99.7582 26.4883 98.9892 26.4883 98.9465 27.0864 99.63 28.1972 100.356 29.308 100.399 29.2653 100.399 27.77Z" transform="matrix(1.00148 0 0 -1 0 182)"/><path d="M105.398 30.846C104.5 29.8634 104.458 27.6418 105.312 26.9155 105.654 26.6164 106.423 26.4883 107.021 26.5737 107.876 26.7446 108.089 26.6164 108.089 25.9329 108.089 25.2493 107.876 25.1211 106.85 25.3347 106.081 25.5056 105.44 25.3775 105.141 25.0357 104.543 24.3094 104.97 23.9249 106.338 23.9249 109.585 23.9249 111.251 28.3254 109.029 30.8887 108.175 31.8286 106.295 31.8286 105.398 30.846ZM107.833 29.3507C108.132 28.5817 108.089 28.0263 107.79 27.7272 107.149 27.0864 105.739 29.1798 106.124 30.1624 106.466 31.1023 107.363 30.6751 107.833 29.3507Z" transform="matrix(1.00148 0 0 -1 0 182)"/></g></svg>